<?xml version="1.0" standalone="no"?><!DOCTYPE svg PUBLIC "-//W3C//DTD SVG 1.1//EN" "http://www.w3.org/Graphics/SVG/1.1/DTD/svg11.dtd"><svg t="1615094543576" class="icon" viewBox="0 0 1024 1024" version="1.1" xmlns="http://www.w3.org/2000/svg" p-id="15560" width="32" height="32" xmlns:xlink="http://www.w3.org/1999/xlink"><defs><style type="text/css"></style></defs><path d="M910.941091 139.636364H113.012364A66.746182 66.746182 0 0 0 46.545455 206.661818v610.676364A66.746182 66.746182 0 0 0 113.012364 884.363636h797.928727A66.792727 66.792727 0 0 0 977.454545 817.338182V206.661818A66.792727 66.792727 0 0 0 910.941091 139.636364zM930.909091 186.181818v115.758546L512 605.090909 93.090909 301.986909V186.181818h837.818182zM93.090909 837.818182V372.363636l372.363636 279.272728a65.163636 65.163636 0 0 0 93.09091 0l372.363636-279.272728v465.454546H93.090909z" fill="#FF69B4" p-id="15561"></path></svg>